<?xml version="1.0" encoding="UTF-8" standalone="no"?>
<!-- Created with Inkscape (http://www.inkscape.org/) -->

<svg
   xmlns:dc="http://purl.org/dc/elements/1.1/"
   xmlns:cc="http://creativecommons.org/ns#"
   xmlns:rdf="http://www.w3.org/1999/02/22-rdf-syntax-ns#"
   xmlns:svg="http://www.w3.org/2000/svg"
   xmlns="http://www.w3.org/2000/svg"
   xmlns:sodipodi="http://sodipodi.sourceforge.net/DTD/sodipodi-0.dtd"
   xmlns:inkscape="http://www.inkscape.org/namespaces/inkscape"
   width="78.669746mm"
   height="107.97079mm"
   viewBox="0 0 278.75107 382.57365"
   id="svg4246"
   version="1.1"
   inkscape:version="0.91 r13725"
   sodipodi:docname="fairy.svg">
  <defs
     id="defs4248" />
  <sodipodi:namedview
     id="base"
     pagecolor="#ffffff"
     bordercolor="#666666"
     borderopacity="1.0"
     inkscape:pageopacity="0.0"
     inkscape:pageshadow="2"
     inkscape:zoom="2"
     inkscape:cx="208.13188"
     inkscape:cy="148.62081"
     inkscape:document-units="px"
     inkscape:current-layer="layer1"
     showgrid="false"
     inkscape:snap-global="false"
     inkscape:window-width="1535"
     inkscape:window-height="876"
     inkscape:window-x="65"
     inkscape:window-y="24"
     inkscape:window-maximized="1"
     fit-margin-top="0"
     fit-margin-left="0"
     fit-margin-right="0"
     fit-margin-bottom="0" />
  <metadata
     id="metadata4251">
    <rdf:RDF>
      <cc:Work
         rdf:about="">
        <dc:format>image/svg+xml</dc:format>
        <dc:type
           rdf:resource="http://purl.org/dc/dcmitype/StillImage" />
        <dc:title></dc:title>
      </cc:Work>
    </rdf:RDF>
  </metadata>
  <g
     inkscape:label="Layer 1"
     inkscape:groupmode="layer"
     id="layer1"
     transform="translate(-205.30487,-5.8974718)">
    <path
       inkscape:connector-curvature="0"
       id="path4857"
       d="m 364.6629,145.84142 c -12.47514,-19.58903 -25.45488,-39.63679 -33.19155,-64.92508 -2.41974,-9.83036 -2.13044,-20.731843 -4.23202,-30.7903 -2.1081,-10.478196 -2.18927,-23.427014 -8.30279,-30.235637 -3.55962,-7.815231 -11.0437,-21.7280544 -15.46108,-7.04523 -3.36347,5.460299 -6.06903,22.857477 1.28178,20.489672 -2.40105,-14.953295 11.74305,-7.469483 8.35389,4.392894 -1.2103,12.619152 -11.09437,12.605294 -16.72562,7.585532 -4.4498,-4.859205 -10.66348,-15.568582 -16.16326,-11.347682 1.24023,9.949763 6.05466,17.963394 9.16471,26.728006 6.65345,17.049415 14.59073,33.303305 18.89476,52.296165 -0.18194,10.47456 4.56067,20.79183 1.73039,31.00514 -5.19597,15.03261 -17.97348,25.04729 -28.20834,16.35012 5.92827,8.48173 12.50805,16.94624 15.82291,28.71384 1.08752,10.46305 -3.29001,19.96394 -6.04462,28.99202 -2.39495,9.27163 -7.26337,15.78899 -13.1826,19.22934 -4.3057,4.96921 -11.98275,-6.67864 -11.44069,7.07744 -0.28409,10.73265 7.47732,15.73234 13.22818,12.96254 11.50126,-5.15443 23.24432,-11.00872 33.16939,-21.81632 6.72747,-5.40498 5.44712,-17.64959 8.4195,-26.41892 5.35199,-12.35203 13.98668,-19.46352 20.92797,-29.21438 3.45129,-13.1999 7.47973,-26.08053 11.41227,-38.96798 3.5156,1.64627 7.03122,3.29254 10.54682,4.93882 z"
       style="fill:#49624f;fill-opacity:1;fill-rule:evenodd;stroke:#446e4e;stroke-width:1px;stroke-linecap:butt;stroke-linejoin:miter;stroke-opacity:1" />
    <path
       style="fill:#6d9376;fill-opacity:1;fill-rule:evenodd;stroke:#446e4e;stroke-width:1px;stroke-linecap:butt;stroke-linejoin:miter;stroke-opacity:1"
       d="m 329.7983,145.84142 c 19.62672,-19.58903 40.04731,-39.63679 52.21915,-64.92508 3.8069,-9.83036 3.35176,-20.731843 6.65811,-30.7903 3.31659,-10.478196 3.4443,-23.427014 13.0625,-30.235637 5.60022,-7.815231 17.37468,-21.7280544 24.32439,-7.04523 5.29164,5.460299 9.5482,22.857477 -2.01658,20.489672 3.7775,-14.953295 -18.47494,-7.469483 -13.14289,4.392894 1.90412,12.619152 17.4544,12.605294 26.31386,7.585532 7.00071,-4.859205 16.77649,-15.568582 25.42911,-11.347682 -1.95122,9.949763 -9.5256,17.963394 -14.41854,26.728006 -10.46764,17.049415 -22.9551,33.303305 -29.72648,52.296165 0.28623,10.47456 -7.17515,20.79183 -2.72237,31.00514 8.17465,15.03261 28.27708,25.04729 44.37923,16.35012 -9.32674,8.48173 -19.67849,16.94624 -24.89364,28.71384 -1.71096,10.46305 5.17606,19.96394 9.50979,28.99202 3.7679,9.27163 11.42721,15.78899 20.73974,19.22934 6.77402,4.96921 18.85206,-6.67864 17.99926,7.07744 0.44694,10.73265 -11.76382,15.73234 -20.81145,12.96254 -18.09455,-5.15443 -36.56951,-11.00872 -52.18429,-21.81632 -10.5841,-5.40498 -8.56977,-17.64959 -13.24612,-26.41892 -8.42011,-12.35203 -22.00478,-19.46352 -32.92527,-29.21438 -5.42981,-13.1999 -11.76761,-26.08053 -17.95454,-38.96798 -5.53099,1.64627 -11.06199,3.29254 -16.59297,4.93882 z"
       id="path4854"
       inkscape:connector-curvature="0" />
    <path
       style="fill:none;fill-rule:evenodd;stroke:#000000;stroke-width:1px;stroke-linecap:butt;stroke-linejoin:miter;stroke-opacity:1"
       d="m 369.09606,254.26445 20.29062,61.83808 60.87186,28.02038 -4.8311,12.56086"
       id="path4794"
       inkscape:connector-curvature="0" />
    <path
       style="fill:none;fill-rule:evenodd;stroke:#000000;stroke-width:1px;stroke-linecap:butt;stroke-linejoin:miter;stroke-opacity:1"
       d="m 347.83921,258.12933 9.66221,66.66918 28.9866,31.88526 0,19.32441"
       id="path4796"
       inkscape:connector-curvature="0" />
    <path
       inkscape:connector-curvature="0"
       id="path4875"
       d="m 389.19148,336.90703 6.4582,21.80692 -0.72702,20.02777 1.98754,9.15952 -22.58906,-2.38569 c 0,0 -1.94718,-20.92872 -3.97699,-23.95029 -2.02981,-3.02157 5.73399,-16.09724 5.73399,-16.09724 l 0.95645,-9.66102 z"
       style="color:#000000;clip-rule:nonzero;display:inline;overflow:visible;visibility:visible;opacity:1;isolation:auto;mix-blend-mode:normal;color-interpolation:sRGB;color-interpolation-filters:linearRGB;solid-color:#000000;solid-opacity:1;fill:#e9c6af;fill-opacity:1;fill-rule:evenodd;stroke:#d38d5f;stroke-width:1px;stroke-linecap:butt;stroke-linejoin:miter;stroke-miterlimit:4;stroke-dasharray:none;stroke-dashoffset:0;stroke-opacity:1;color-rendering:auto;image-rendering:auto;shape-rendering:auto;text-rendering:auto;enable-background:accumulate"
       sodipodi:nodetypes="cccccsccc" />
    <path
       style="fill:none;fill-rule:evenodd;stroke:#000000;stroke-width:1px;stroke-linecap:butt;stroke-linejoin:miter;stroke-opacity:1"
       d="M 354.60276,243.63603 337.21079,126.7234 341.07567,79.378623"
       id="path4798"
       inkscape:connector-curvature="0" />
    <path
       style="fill:none;fill-rule:evenodd;stroke:#000000;stroke-width:1px;stroke-linecap:butt;stroke-linejoin:miter;stroke-opacity:1"
       d="m 339.14323,139.28427 -21.22606,0.14116 -26.11872,56.86582 -57.00698,-23.18928"
       id="path4800"
       inkscape:connector-curvature="0"
       sodipodi:nodetypes="cccc" />
    <path
       sodipodi:nodetypes="cccc"
       inkscape:connector-curvature="0"
       id="path4802"
       d="m 338.95816,139.28427 21.22606,0.14116 26.11872,56.86582 -31.88526,60.87186"
       style="fill:none;fill-rule:evenodd;stroke:#000000;stroke-width:1px;stroke-linecap:butt;stroke-linejoin:miter;stroke-opacity:1" />
    <path
       style="fill:#98cda4;fill-opacity:1;fill-rule:evenodd;stroke:#356e42;stroke-width:1px;stroke-linecap:butt;stroke-linejoin:miter;stroke-opacity:1"
       d="m 309.19041,173.10197 c 1.93244,21.25684 7.24665,9.90375 10.86998,32.85148 0.91664,5.80537 0.72466,27.05416 0.72466,31.88526 0,4.8311 14.4933,83.09492 20.29062,89.85846 5.79732,6.76354 21.25685,34.78393 27.05417,34.78393 5.79732,0 6.76354,-17.39197 12.56086,-12.56087 5.79732,4.8311 15.45952,6.76354 17.39196,0.96622 1.93244,-5.79732 13.52708,-6.76354 20.29062,-6.76354 6.76354,0 12.56086,-5.79732 16.42574,-11.59464 3.86488,-5.79732 5.79732,-10.62842 -5.79732,-12.56086 -11.59464,-1.93244 -18.35818,-6.76354 -26.08794,-19.3244 L 395.184,288.08215 c 0,0 -12.93471,-32.44345 -13.52708,-42.51368 -0.72466,-12.31931 -5.55576,-34.30081 -5.55576,-34.30081 l -12.56087,-16.18418 -1.20777,-35.50859 c -17.71404,-6.85425 -35.42807,2.65452 -53.14211,13.52708 z"
       id="path4806"
       inkscape:connector-curvature="0"
       sodipodi:nodetypes="csssssssssscscccc" />
    <path
       style="fill:#e9c6af;fill-rule:evenodd;stroke:#d38d5f;stroke-width:1px;stroke-linecap:butt;stroke-linejoin:miter;stroke-opacity:1"
       d="m 232.85903,164.40599 c 15.45952,10.62842 50.24344,19.3244 50.24344,19.3244 0,0 24.1555,-52.17588 29.95282,-52.17588 5.79732,0 19.3244,-5.79733 19.3244,-5.79733 l -2.89866,-5.79732 16.42574,-0.96622 4.83111,6.76354 3.86488,3.86489 17.39196,1.93244 21.25684,30.91904 c 0,0 8.69598,25.12172 8.69598,32.85148 0,7.72976 -43.4799,65.70296 -46.37856,66.66918 -2.89866,0.96622 -2.89866,20.29062 -12.56087,19.3244 -9.6622,-0.96622 -17.39196,-14.4933 -17.39196,-14.4933 l 6.76354,-16.42574 c 0,0 -1.93244,-10.62842 1.93244,-10.62842 3.86488,0 11.59464,8.69598 11.59464,8.69598 0,0 38.64881,-52.17588 34.78393,-55.07454 -3.86488,-2.89866 -17.39196,-35.75014 -17.39196,-35.75014 -7.81726,12.27563 -24.57177,17.11446 -35.99171,7.97132 -5.91662,9.88069 -13.87562,9.28596 -16.18418,5.55576 0,0 -8.69598,29.95282 -22.22306,32.85148 -13.3611,2.86309 -58.93942,-14.4933 -67.6354,-24.1555 -8.69598,-9.6622 -15.45952,-2.89866 -15.45952,-16.42574 0,-13.52708 18.35818,-11.59464 20.29062,-15.45952 1.93244,-3.86488 7.72976,-21.25685 7.72976,-15.45952 0,5.79732 -0.96622,31.88526 -0.96622,31.88526 z"
       id="path4804"
       inkscape:connector-curvature="0"
       sodipodi:nodetypes="ccscccccccsssccscscccsssssc" />
    <g
       id="g4847"
       transform="matrix(1.2382848,0,0,1.2382848,-79.284112,-16.207653)">
      <ellipse
         ry="22.717091"
         rx="21.147596"
         cy="80.651497"
         cx="348.95502"
         id="path4808"
         style="color:#000000;clip-rule:nonzero;display:inline;overflow:visible;visibility:visible;opacity:1;isolation:auto;mix-blend-mode:normal;color-interpolation:sRGB;color-interpolation-filters:linearRGB;solid-color:#000000;solid-opacity:1;fill:#e9c6af;fill-opacity:1;fill-rule:evenodd;stroke:#d38d5f;stroke-width:0.80756861px;stroke-linecap:butt;stroke-linejoin:miter;stroke-miterlimit:4;stroke-dasharray:none;stroke-dashoffset:0;stroke-opacity:1;color-rendering:auto;image-rendering:auto;shape-rendering:auto;text-rendering:auto;enable-background:accumulate" />
      <path
         sodipodi:nodetypes="sssss"
         inkscape:connector-curvature="0"
         id="ellipse4824"
         d="m 359.85431,86.572899 c 0,14.873271 -11.22695,26.930441 -25.07611,26.930441 -13.84916,0 -19.95197,-17.181323 -19.95196,-32.054597 0,-14.873271 6.1028,-21.806284 19.95196,-21.806281 13.84915,3e-6 25.07611,12.057169 25.07611,26.930437 z"
         style="color:#000000;clip-rule:nonzero;display:inline;overflow:visible;visibility:visible;opacity:1;isolation:auto;mix-blend-mode:normal;color-interpolation:sRGB;color-interpolation-filters:linearRGB;solid-color:#000000;solid-opacity:1;fill:#e9c6af;fill-opacity:1;fill-rule:evenodd;stroke:#d38d5f;stroke-width:0.80756861px;stroke-linecap:butt;stroke-linejoin:miter;stroke-miterlimit:4;stroke-dasharray:none;stroke-dashoffset:0;stroke-opacity:1;color-rendering:auto;image-rendering:auto;shape-rendering:auto;text-rendering:auto;enable-background:accumulate" />
      <path
         inkscape:connector-curvature="0"
         id="path4827"
         d="m 329.99562,66.474671 c -6.14899,5.124156 -17.08052,2.391273 -17.08052,9.22348 0,6.832208 -0.68322,18.44696 -4.44093,12.639584 -3.75772,-5.807376 -6.83221,-16.397298 4.44093,-26.645609 11.27314,-10.248311 14.34764,-7.515428 14.34764,-7.515428 l 6.14898,7.857038 z"
         style="color:#000000;clip-rule:nonzero;display:inline;overflow:visible;visibility:visible;opacity:1;isolation:auto;mix-blend-mode:normal;color-interpolation:sRGB;color-interpolation-filters:linearRGB;solid-color:#000000;solid-opacity:1;fill:#000000;fill-opacity:1;fill-rule:evenodd;stroke:none;stroke-width:1px;stroke-linecap:butt;stroke-linejoin:miter;stroke-miterlimit:4;stroke-dasharray:none;stroke-dashoffset:0;stroke-opacity:1;color-rendering:auto;image-rendering:auto;shape-rendering:auto;text-rendering:auto;enable-background:accumulate" />
      <path
         inkscape:connector-curvature="0"
         id="path4829"
         d="m 328.97079,56.909581 c 11.95636,-8.54026 18.10535,-2.732883 18.10535,-2.732883 l 10.58992,10.931532 c 0,0 10.93153,12.297973 8.19865,24.937557 -2.73288,12.639583 -9.22348,19.471793 -4.09933,28.012053 5.12416,8.54026 8.19865,9.22348 5.12416,8.54026 -3.07449,-0.68322 -6.14899,-1.70806 -6.14899,-1.70806 l -15.03085,-16.7389 c 0,0 -1.70806,0.68322 4.44093,-11.614756 6.14899,-12.297974 1.70805,-16.397298 1.02483,-19.130181 -0.68322,-2.732883 -5.80737,-6.490597 -5.80737,-6.490597 0,0 3.07449,10.589921 -1.36645,10.589921 -4.44093,0 -4.44093,-4.099324 -4.44093,-5.465765 0,-1.366442 -1.02483,-7.857039 -1.02483,-9.223481 0,-1.366441 -4.78255,-4.099324 -4.78255,-4.099324 l -3.07449,-3.074493 z"
         style="fill:#000000;fill-rule:evenodd;stroke:none;stroke-width:1px;stroke-linecap:butt;stroke-linejoin:miter;stroke-opacity:1" />
      <path
         inkscape:connector-curvature="0"
         id="path4845"
         d="m 348.78419,55.88475 c 11.27314,0 17.42213,-1.708052 19.8134,10.248311 2.39127,11.956363 2.39127,8.881869 2.39127,11.956363 0,3.074493 -2.04966,10.589921 -1.02483,19.471791 1.02483,8.881865 4.44094,14.689245 4.44094,14.689245 l 0.34161,8.19865 -8.19865,-10.24831 c 0,0 -5.12416,-11.273144 -5.80738,-13.322806 -0.68322,-2.049662 -1.36644,-2.049662 -1.36644,-2.049662 l -5.80737,-22.546285 z"
         style="fill:#000000;fill-rule:evenodd;stroke:none;stroke-width:1px;stroke-linecap:butt;stroke-linejoin:miter;stroke-opacity:1" />
    </g>
    <path
       style="color:#000000;clip-rule:nonzero;display:inline;overflow:visible;visibility:visible;opacity:1;isolation:auto;mix-blend-mode:normal;color-interpolation:sRGB;color-interpolation-filters:linearRGB;solid-color:#000000;solid-opacity:1;fill:#e9c6af;fill-opacity:1;fill-rule:evenodd;stroke:#d38d5f;stroke-width:1px;stroke-linecap:butt;stroke-linejoin:miter;stroke-miterlimit:4;stroke-dasharray:none;stroke-dashoffset:0;stroke-opacity:1;color-rendering:auto;image-rendering:auto;shape-rendering:auto;text-rendering:auto;enable-background:accumulate"
       d="m 425.5,338.8622 12.5,19 0,17 1,7.5 16.5,-8 c 0,0 2,-30.5 1,-34 -1,-3.5 -16,-6 -16,-6 l -8,-5.5 z"
       id="path4859"
       inkscape:connector-curvature="0" />
  </g>
</svg>
